<svg xmlns="http://www.w3.org/2000/svg" version="1.1" xmlns:xlink="http://www.w3.org/1999/xlink" xmlns:svgjs="http://svgjs.dev/svgjs" width="1000" height="1125" viewBox="0 0 1000 1125"><g transform="matrix(1,0,0,1,0,0)"><svg viewBox="0 0 320 360" data-background-color="#282634" preserveAspectRatio="xMidYMid meet" height="1125" width="1000" xmlns="http://www.w3.org/2000/svg" xmlns:xlink="http://www.w3.org/1999/xlink"><g id="tight-bounds" transform="matrix(1,0,0,1,0,0)"><svg viewBox="0 0 320 360" height="360" width="320"><g><svg></svg></g><g><svg viewBox="0 0 320 360" height="360" width="320"><g><path xmlns="http://www.w3.org/2000/svg" d="M297.491 100.645c-12.426-21.51-112.674-79.355-137.491-79.355-24.817 0-125.028 57.845-137.491 79.355-11.591 20.02-11.591 138.726 0 158.746 12.463 21.474 112.674 79.319 137.491 79.319 24.817 0 125.064-57.845 137.491-79.355 11.591-20.02 11.591-138.69 0-158.71zM309.481 93.705c-14.461-24.998-119.469-86.295-149.481-86.295-30.012 0-135.02 61.297-149.481 86.295-14.025 24.199-14.025 148.391 0 172.59 14.461 24.998 119.469 86.295 149.481 86.295 30.012 0 135.02-61.297 149.481-86.259 14.025-24.235 14.025-148.427 0-172.626zM300.906 261.353c-12.753 22.055-115.472 81.317-140.906 81.318-25.434 0-128.153-59.298-140.906-81.354-11.881-20.529-11.881-142.178 0-162.707 12.753-22.019 115.472-81.281 140.906-81.281 25.434 0 128.153 59.298 140.906 81.318 11.881 20.529 11.881 142.178 0 162.706z" fill="#ff4057" fill-rule="nonzero" stroke="none" stroke-width="1" stroke-linecap="butt" stroke-linejoin="miter" stroke-miterlimit="10" stroke-dasharray="" stroke-dashoffset="0" font-family="none" font-weight="none" font-size="none" text-anchor="none" style="mix-blend-mode: normal" data-fill-palette-color="tertiary"></path></g><g transform="matrix(1,0,0,1,65.37634408602153,90)"><svg viewBox="0 0 189.24731182795693 180" height="180" width="189.24731182795693"><g><svg viewBox="0 0 189.24731182795693 180" height="180" width="189.24731182795693"><g><svg viewBox="0 0 189.24731182795693 180" height="180" width="189.24731182795693"><g><svg viewBox="0 0 189.24731182795693 180" height="180" width="189.24731182795693"><g id="textblocktransform"><svg viewBox="0 0 189.24731182795693 180" height="180" width="189.24731182795693" id="textblock"><g><svg viewBox="0 0 189.24731182795693 180" height="180" width="189.24731182795693"><g transform="matrix(1,0,0,1,0,0)"><svg width="189.24731182795693" viewBox="0.9000000357627869 -38.650001525878906 44 41.85000228881836" height="180" data-palette-color="#282634"><path d="M33.2-22.25L33.2-22.25Q34.35-22.25 34.35-20.8L34.35-20.8Q34.35-19.25 33.1-17.9L33.1-17.9Q30.9-15.45 29.05-11.75L29.05-11.75Q26.25-6.15 26.25-1.65L26.25-1.65Q26.25 0.1 26.88 0.9 27.5 1.7 28.3 1.7L28.3 1.7Q30.7 1.7 33.9-2.2L33.9-2.2Q36.75-5.85 38.25-9.3L38.25-9.3Q38.65-10.1 39.05-10 39.45-9.9 39.1-9.1L39.1-9.1Q37.05-4.55 34.45-1.1L34.45-1.1Q33.1 0.75 31.1 1.98 29.1 3.2 27.13 3.2 25.15 3.2 24.15 1.63 23.15 0.05 23.15-2.1 23.15-4.25 23.68-6.35 24.2-8.45 25.05-9.6L25.05-9.6Q20-3.55 14.3 0.1L14.3 0.1Q11.3 1.95 7.65 2.3L7.65 2.3Q7.3 2.35 6.48 2.35 5.65 2.35 4.5 1.75L4.5 1.75Q0.9 0.25 0.9-5.58 0.9-11.4 4.7-18.2L4.7-18.2Q6.7-21.8 9.1-24.55L9.1-24.55Q5.75-26.15 4.1-28L4.1-28Q2.9-29.35 2.9-31.25 2.9-33.15 3.65-33.65L3.65-33.65Q4.15-34.3 4.55-33.9L4.55-33.9Q4.85-33.45 4.58-32.8 4.3-32.15 4.3-31.55L4.3-31.55Q4.3-30.2 5.75-28.55 7.2-26.9 10-25.6L10-25.6Q21.75-38.65 34.4-38.65L34.4-38.65Q38.35-38.65 40.68-36.88 43-35.1 43-32.3L43-32.3Q43-29.25 39.6-26.4L39.6-26.4Q37.9-24.9 34.75-23.8L34.75-23.8Q29.95-22.1 23.33-22.1 16.7-22.1 12.35-23.5L12.35-23.5Q7.3-16.35 5.4-11.63 3.5-6.9 3.5-4.3L3.5-4.3Q3.5-3.75 3.55-3.3L3.55-3.3Q4.15 0.85 7.75 0.85L7.75 0.85Q11.8 0.85 17.15-3.55L17.15-3.55Q20.95-6.75 24.6-11.15 28.25-15.55 30.03-18.9 31.8-22.25 33.2-22.25ZM40.95-32.9L40.95-32.9Q40.95-35.05 39.18-36.2 37.4-37.35 34.3-37.35 31.2-37.35 28.13-36.35 25.05-35.35 22.38-33.4 19.7-31.45 17.63-29.4 15.55-27.35 13.15-24.5L13.15-24.5Q16.9-23.3 22.35-23.3L22.35-23.3Q32.6-23.3 37.3-26.6L37.3-26.6Q40.95-29.15 40.95-32.9ZM44 0.1Q43.3 0.7 42.45 0.7 41.6 0.7 41.15 0.18 40.7-0.35 40.7-0.75L40.7-0.75Q40.7-2.1 41.5-2.75 42.3-3.4 43.15-3.4 44-3.4 44.45-2.88 44.9-2.35 44.9-1.95 44.9-1.55 44.8-1.03 44.7-0.5 44 0.1Z" opacity="1" transform="matrix(1,0,0,1,0,0)" fill="#282634" class="wordmark-text-0" data-fill-palette-color="quaternary" id="text-0"></path></svg></g></svg></g></svg></g></svg></g><g></g></svg></g></svg></g></svg></g></svg></g><defs></defs></svg><rect width="320" height="360" fill="none" stroke="none" visibility="hidden"></rect></g></svg></g></svg>